<?xml version="1.0" encoding="UTF-8"?>
<svg width="210px" height="70px" viewBox="0 0 27 9" version="1.1" xmlns="http://www.w3.org/2000/svg" xmlns:xlink="http://www.w3.org/1999/xlink">
    <title>xdux</title>
    <g id="xdux-logo" stroke="none" stroke-width="1" fill="none" fill-rule="evenodd">
        <path d="M10.0453319,9 C8.27903942,9 7,7.59299191 7,5.83423181 L7,5.80997305 C7,4.05121294 8.27903942,2.64420485 10.0453319,2.64420485 C11.458366,2.64420485 12.5059602,3.51752022 12.8592187,4.66981132 L12.8592187,0 L13.1150265,0 L13.1150265,8.85444744 L12.8592187,8.85444744 L12.8592187,6.97439353 C12.5059602,8.12668464 11.458366,9 10.0453319,9 Z M10.0575133,8.7574124 C11.7141738,8.7574124 12.8714,7.41105121 12.8714,5.83423181 L12.8714,5.80997305 C12.8714,4.24528302 11.7019925,2.88679245 10.0575133,2.88679245 C8.38867137,2.88679245 7.26798921,4.17250674 7.26798921,5.79784367 L7.26798921,5.82210243 C7.26798921,7.43530997 8.38867137,8.7574124 10.0575133,8.7574124 Z M17.4689811,9 C15.8245019,9 14.9109023,7.89622642 14.9109023,6.22237197 L14.9109023,2.78975741 L15.1667102,2.78975741 L15.1667102,6.19811321 C15.1667102,7.71428571 15.9584965,8.7574124 17.4933438,8.7574124 C18.8454712,8.7574124 19.917428,7.60512129 19.917428,6.14959569 L19.917428,2.78975741 L20.1732359,2.78975741 L20.1732359,8.85444744 L19.917428,8.85444744 L19.917428,7.19272237 C19.7225268,7.93261456 18.9185591,9 17.4689811,9 Z M21.3722266,8.85444744 L24.0399374,5.77358491 L21.4696772,2.78975741 L21.7742104,2.78975741 L24.1861133,5.61590296 L26.6101975,2.78975741 L26.9025494,2.78975741 L24.3322892,5.77358491 L27,8.85444744 L26.6954668,8.85444744 L24.1861133,5.93126685 L21.6645784,8.85444744 L21.3722266,8.85444744 Z" id="dux-copy-2" fill="#3D3B46"></path>
        <g id="Group" transform="translate(-1.000000, 3.000000)" fill="#1D1D1F">
            <polygon id="x-copy-2" points="6.66002441 6 5.92802441 6 3.76802441 3.32941176 1.60802441 6 0.900024414 6 3.40802441 2.94117647 0.996024414 0 1.72802441 0 3.79202441 2.54117647 5.85602441 0 6.56402441 0 4.15202441 2.92941176"></polygon>
            <polygon id="x-copy-3" points="6.76 6 6.028 6 3.868 3.32941176 1.708 6 1 6 3.508 2.94117647 1.096 0 1.828 0 3.892 2.54117647 5.956 0 6.664 0 4.252 2.92941176"></polygon>
            <polygon id="x-copy-4" points="6.85997559 6 6.12797559 6 3.96797559 3.32941176 1.80797559 6 1.09997559 6 3.60797559 2.94117647 1.19597559 0 1.92797559 0 3.99197559 2.54117647 6.05597559 0 6.76397559 0 4.35197559 2.92941176"></polygon>
        </g>
    </g>
</svg>